<svg viewBox="0 0 239 243" xmlns="http://www.w3.org/2000/svg"><title>buys-lvl2</title><g transform="translate(1 1)" fill="none" fill-rule="evenodd"><path d="M221 157.795c0 8.08-13.5 28.407-24.5 36.882l-59 32.405c-18.5 8.973-38.5 9.472-55 0l-58-32.405C13 184.707 0 165.882 0 157.795v-80.78c0-8.08 14.5-30.402 24.5-37.88l58-33.9c16.5-6.98 37-6.98 55 0l59 33.9c12.234 10.47 24.5 29.792 24.5 37.88v80.78z" fill="#EEF2F2" fill-rule="nonzero"/><path d="M221 157.795c0 8.08-13.5 28.407-24.5 36.882l-59 32.405c-18.5 8.973-38.5 9.472-55 0l-58-32.405C13 184.707 0 165.882 0 157.795v-80.78c0-8.08 14.5-30.402 24.5-37.88l58-33.9c16.5-6.98 37-6.98 55 0l59 33.9c12.234 10.47 24.5 29.792 24.5 37.88v80.78z" stroke="#384544" fill="none"/><g fill-rule="nonzero"><path d="M103.406 59.68h-40.5c-2.784 0-5.062 2.283-5.062 5.073V92.65h50.625V64.752c0-2.79-2.28-5.073-5.064-5.073z" fill="#3689C9"/><path d="M159.094 52.072h-20.25c-2.785 0-5.063 2.283-5.063 5.072v38.042h30.376V57.144c0-2.79-2.278-5.072-5.062-5.072z" fill="#EE2C39"/><path d="M143.906 85.04V72.36c0-2.79-2.278-5.07-5.062-5.07h-5.063c2.786 0 5.064 2.28 5.064 5.07v22.826h25.312v-5.073H148.97c-2.786 0-5.064-2.282-5.064-5.072z" fill="#CC202C"/><path d="M90.75 77.433c0-5.58 4.556-10.144 10.125-10.144-2.784 0-5.063 2.28-5.063 5.07v12.68H57.845c0-2.788 2.278-5.07 5.062-5.07H88.22c1.517 0 2.53-1.015 2.53-2.537z" fill="#1B6FAB"/><path d="M133.78 67.29h-32.905c-2.784 0-5.063 2.28-5.063 5.07v22.826h43.032V72.36c0-2.79-2.278-5.07-5.063-5.07z" fill="#3CB54A"/><path d="M133.78 76.165c0 2.03-1.77 3.804-3.796 3.804H95.812v5.07h43.032V72.36h-1.266c-2.025 0-3.797 1.776-3.797 3.805z" fill="#0E9347"/><g fill="#35495C"><path d="M55.313 102.794c-.254 0-.76 0-1.013-.254-1.266-.507-1.772-2.03-1.266-3.297L71.26 58.16c1.518-3.805 5.315-6.088 9.112-6.088h5.315c1.52 0 2.532 1.015 2.532 2.536 0 1.522-1.014 2.536-2.533 2.536h-5.315c-2.025 0-3.797 1.268-4.556 3.044L57.59 101.272c-.506 1.015-1.265 1.522-2.278 1.522zM166.688 102.794c-1.013 0-1.772-.507-2.28-1.522l-18.224-41.084c-.76-1.776-2.53-3.044-4.556-3.044h-5.315c-1.52 0-2.532-1.014-2.532-2.536 0-1.52 1.014-2.536 2.532-2.536h5.316c4.05 0 7.594 2.283 9.366 6.087l18.225 41.083c.505 1.268 0 2.79-1.267 3.297-.506.254-1.012.254-1.265.254z"/></g><path d="M133.78 62.216H88.22c-2.786 0-5.064-2.282-5.064-5.072v-5.072c0-2.79 2.278-5.072 5.063-5.072h45.56c2.786 0 5.064 2.282 5.064 5.072v5.072c0 2.79-2.278 5.072-5.063 5.072z" fill="#517875"/><path d="M133.78 57.144H83.157c0 2.79 2.278 5.072 5.063 5.072h45.56c2.786 0 5.064-2.282 5.064-5.072v-5.072c-2.785 0-5.063 2.283-5.063 5.072z" fill="#4A6E6B"/><path d="M169.725 189.02H52.275c-5.316 0-9.872-4.057-10.125-9.383l-4.556-69.235h146.812l-4.556 69.235c-.253 5.326-4.556 9.384-10.125 9.384z" fill="#9CBFBD"/><path d="M186.938 110.402H35.063c-2.785 0-5.063-1.775-5.063-4.31V89.098c0-2.284 2.278-4.06 5.063-4.06h151.875c2.784 0 5.062 1.776 5.062 4.313v16.99c0 2.284-2.278 4.06-5.063 4.06z" fill="#A1C3C1"/><g transform="translate(52.78 95.186)" fill="#597E7B"><ellipse cx="2.531" cy="2.536" rx="2.531" ry="2.536"/><ellipse cx="113.906" cy="2.536" rx="2.531" ry="2.536"/></g><path d="M179.85 179.637l4.556-69.235H37.594l.506 7.608h115.678c2.785 0 5.063 2.283 5.063 5.326l-2.024 55.794c0 2.79-2.278 4.818-5.063 4.818h-93.91c-2.784 0-5.062 2.283-5.062 5.073h116.946c5.568 0 9.87-4.057 10.124-9.383z" fill="#597E7B"/><path fill="#81ADAA" d="M184.153 112.938l.253-2.536H37.594l.253 2.536"/><path d="M186.938 95.186v5.072c0 2.79-2.28 5.072-5.063 5.072H40.125c-2.784 0-5.063 2.282-5.063 5.072h151.875c2.785 0 5.063-2.282 5.063-5.072V90.113c-2.784 0-5.063 2.283-5.063 5.073z" fill="#82AFAB"/><path d="M166.688 90.113H40.124c-2.784 0-5.063-2.282-5.063-5.072H171.75c0 2.79-2.278 5.073-5.063 5.073z" fill="#7BB4AF"/><g fill="#597E7B"><path d="M88.22 171.268c-1.52 0-2.532-1.014-2.532-2.536v-35.505c0-1.522 1.012-2.536 2.53-2.536 1.52 0 2.532 1.015 2.532 2.537v35.505c0 1.522-1.012 2.536-2.53 2.536zM103.406 171.268c-1.52 0-2.53-1.014-2.53-2.536v-35.505c0-1.522 1.01-2.536 2.53-2.536 1.52 0 2.53 1.015 2.53 2.537v35.505c0 1.522-1.01 2.536-2.53 2.536zM118.594 171.268c-1.52 0-2.53-1.014-2.53-2.536v-35.505c0-1.522 1.01-2.536 2.53-2.536 1.52 0 2.53 1.015 2.53 2.537v35.505c0 1.522-1.01 2.536-2.53 2.536zM133.78 171.268c-1.517 0-2.53-1.014-2.53-2.536v-35.505c0-1.522 1.013-2.536 2.53-2.536 1.52 0 2.532 1.015 2.532 2.537v35.505c0 1.522-1.012 2.536-2.53 2.536zM148.97 171.268c-1.52 0-2.532-1.014-2.532-2.536v-35.505c0-1.522 1.012-2.536 2.53-2.536 1.52 0 2.532 1.015 2.532 2.537v35.505c0 1.522-1.013 2.536-2.53 2.536zM73.03 171.268c-1.518 0-2.53-1.014-2.53-2.536v-35.505c0-1.522 1.012-2.536 2.53-2.536 1.52 0 2.532 1.015 2.532 2.537v35.505c0 1.522-1.012 2.536-2.53 2.536z"/></g></g><circle fill="#384544" cx="193" cy="197" r="45"/><path d="M210.328 168c.08.24.254.816.522 1.726.267.91.535 2 .802 3.27.268 1.272.51 2.637.723 4.095.214 1.46.32 2.858.32 4.196 0 2.756-.454 5.15-1.364 7.184-.908 2.034-2.086 3.713-3.53 5.037-1.446 1.325-3.085 2.308-4.918 2.95-1.833.643-3.672.964-5.52.964-1.818 0-3.484-.22-4.996-.66-1.512-.443-2.923-1.038-4.234-1.788.24 2.328.428 4.643.562 6.944.134 2.3.227 4.73.28 7.285.054 2.557.088 5.32.1 8.29.014 2.97.008 6.288-.02 9.954h-9.873v-9.714c0-3.157-.046-6.495-.14-10.014-.093-3.52-.34-7.218-.742-11.098-.4-3.88-1.017-7.947-1.846-12.202-.83-4.254-1.98-8.696-3.452-13.325l9.513-3.05 1.645 4.897c.134.4.355 1.037.662 1.906.308.87.716 1.847 1.225 2.93.508 1.084 1.117 2.195 1.826 3.332.71 1.137 1.533 2.18 2.47 3.13.936.95 1.986 1.727 3.15 2.33 1.164.6 2.455.902 3.873.902.322 0 .783-.054 1.385-.16.602-.108 1.204-.37 1.806-.784.602-.414 1.13-1.036 1.586-1.866.455-.83.682-1.953.682-3.37 0-.83-.067-1.734-.2-2.71-.134-.977-.302-1.927-.502-2.85-.2-.924-.415-1.793-.642-2.61-.228-.816-.435-1.505-.623-2.067l9.473-3.05z" fill="#ECF0F1"/></g></svg>