<svg viewBox="0 0 239 241" xmlns="http://www.w3.org/2000/svg"><title>products-lvl1</title><g fill="none" fill-rule="evenodd"><path d="M222 158.795c0 8.08-13.5 28.407-24.5 36.882l-59 32.405c-18.5 8.973-38.5 9.472-55 0l-58-32.405C14 185.707 1 166.882 1 158.795v-80.78c0-8.08 14.5-30.402 24.5-37.88l58-33.9c16.5-6.98 37-6.98 55 0l59 33.9c12.234 10.47 24.5 29.792 24.5 37.88v80.78z" fill="#4B4B4B" fill-rule="nonzero"/><path d="M222 158.795c0 8.08-13.5 28.407-24.5 36.882l-59 32.405c-18.5 8.973-38.5 9.472-55 0l-58-32.405C14 185.707 1 166.882 1 158.795v-80.78c0-8.08 14.5-30.402 24.5-37.88l58-33.9c16.5-6.98 37-6.98 55 0l59 33.9c12.234 10.47 24.5 29.792 24.5 37.88v80.78z" stroke="#666F90" fill="none"/><g fill-rule="nonzero"><path d="M165.49 49.342l13.57 13.552c2.783 2.78 4.347 6.55 4.347 10.482v71.686c0 4.094-3.323 7.412-7.422 7.412H105.48c-4.098 0-7.42-3.318-7.42-7.412v-92.65c0-4.094 3.322-7.412 7.42-7.412h49.513c3.937 0 7.713 1.562 10.496 4.342z" fill="#AAAFAD"/><path d="M153.72 59.824V45h1.274c3.937 0 7.712 1.562 10.496 4.342l13.57 13.552c2.783 2.78 4.347 6.55 4.347 10.482v1.272h-14.844c-8.197 0-14.842-6.637-14.842-14.824z" fill="#C3C9C7"/><path d="M156.875 96.63l5.985 55.844h-9.483V93.487c1.798 0 3.306 1.355 3.498 3.143z" fill="#8A8E8C"/><path d="M135.46 68.308l13.57 13.553c2.783 2.78 4.347 6.55 4.347 10.482v71.686c0 4.094-3.323 7.412-7.422 7.412H75.45c-4.098 0-7.42-3.318-7.42-7.412v-92.65c0-4.094 3.322-7.412 7.42-7.412h49.514c3.937 0 7.712 1.562 10.496 4.342z" fill="#C3C9C7"/><path d="M123.69 78.79V63.966h1.274c3.937 0 7.712 1.562 10.496 4.342l13.57 13.552c2.783 2.78 4.347 6.55 4.347 10.482v1.272h-14.843c-8.198 0-14.843-6.637-14.843-14.824z" fill="#D2D6D5"/><g><path d="M126.845 115.596l5.985 55.844h-9.483v-58.987c1.798 0 3.307 1.355 3.498 3.143z" fill="#AAAFAD"/><path d="M105.43 87.274L119 100.827c2.784 2.78 4.347 6.55 4.347 10.482v71.684c0 4.094-3.323 7.412-7.42 7.412H45.42c-4.097 0-7.42-3.318-7.42-7.41V90.343c0-4.093 3.323-7.412 7.42-7.412h49.514c3.937 0 7.712 1.562 10.496 4.342z" fill="#E0E0E0"/><path d="M93.66 97.756V82.932h1.275c3.937 0 7.712 1.562 10.495 4.342L119 100.826c2.784 2.78 4.347 6.55 4.347 10.483v1.27h-14.843c-8.197 0-14.843-6.637-14.843-14.824z" fill="#F2F2F2"/></g><g><path d="M76.122 127.333l-25.05 25.323c-.852.855-.852 2.243 0 3.1l17.692 17.736c.853.855 2.237.855 3.09 0l24.392-25.116v-21.043H76.122zm11.48 12.134c-1.91 0-3.458-1.553-3.458-3.467 0-1.914 1.548-3.467 3.458-3.467 1.91 0 3.457 1.553 3.457 3.467 0 1.914-1.55 3.467-3.458 3.467z" fill="#979797"/><path d="M87.602 129.067c-3.82 0-6.916 3.104-6.916 6.933 0 3.83 3.097 6.933 6.916 6.933 3.82 0 6.915-3.104 6.915-6.933 0-3.83-3.096-6.933-6.915-6.933zm0 10.4c-1.91 0-3.458-1.553-3.458-3.467 0-1.914 1.548-3.467 3.458-3.467 1.91 0 3.457 1.553 3.457 3.467 0 1.914-1.55 3.467-3.458 3.467z" fill="#B8B8B8"/><path d="M87.602 136.867c-.222 0-.443-.085-.61-.254-.34-.34-.34-.887 0-1.226l12.1-12.133c.338-.34.885-.34 1.223 0 .338.34.338.887 0 1.225l-12.102 12.133c-.17.17-.39.254-.61.254z" fill="#FFF"/><path d="M60.935 142.686l-9.862 9.97c-.853.855-.853 2.243 0 3.1l17.69 17.736c.854.855 2.238.855 3.092 0l9.77-10.06-20.69-20.746z" fill="#ECF0F1"/><path d="M54.73 155.663c-.22 0-.443-.085-.61-.254-.34-.34-.34-.888 0-1.226l7.333-7.354c.338-.34.885-.34 1.223 0 .338.34.338.886 0 1.225l-7.335 7.354c-.167.168-.39.253-.61.253zM60.23 153.824c-.22 0-.44-.085-.61-.254-.338-.34-.338-.887 0-1.226l3.668-3.677c.338-.34.884-.34 1.222 0 .338.34.338.887 0 1.226l-3.668 3.677c-.168.17-.39.254-.61.254zM62.677 156.276c-.222 0-.443-.085-.612-.254-.338-.34-.338-.887 0-1.226l3.668-3.676c.338-.34.884-.34 1.222 0 .338.34.338.886 0 1.225l-3.667 3.677c-.17.17-.39.254-.61.254zM64.51 158.114c-.22 0-.443-.085-.61-.254-.34-.34-.34-.887 0-1.226l3.666-3.676c.338-.34.884-.34 1.222 0 .338.34.338.887 0 1.226l-3.667 3.676c-.167.17-.39.254-.61.254zM67.566 161.178c-.222 0-.443-.085-.612-.254-.338-.338-.338-.886 0-1.225l3.668-3.678c.338-.34.884-.34 1.222 0 .338.34.338.886 0 1.225l-3.667 3.677c-.17.17-.39.254-.61.254zM69.4 163.017c-.22 0-.443-.085-.61-.254-.34-.34-.34-.887 0-1.226l3.666-3.677c.338-.34.885-.34 1.223 0 .337.34.337.887 0 1.225l-3.67 3.678c-.168.17-.39.254-.61.254zM71.233 164.855c-.22 0-.442-.085-.61-.254-.34-.338-.34-.886 0-1.225l3.667-3.676c.338-.34.884-.34 1.222 0 .338.338.338.886 0 1.224l-3.668 3.677c-.168.17-.39.255-.61.255zM69.4 170.37c-.22 0-.443-.085-.61-.254-.34-.34-.34-.886 0-1.225l7.333-7.353c.338-.34.885-.34 1.223 0 .337.34.337.887 0 1.226l-7.335 7.353c-.168.17-.39.254-.61.254zM57.175 156.888c-.22 0-.442-.085-.61-.254-.34-.338-.34-.886 0-1.225l.61-.614c.338-.34.885-.34 1.223 0 .338.34.338.887 0 1.226l-.61.612c-.17.17-.39.254-.613.254zM59.62 159.34c-.22 0-.443-.086-.61-.255-.34-.338-.34-.886 0-1.225l.61-.613c.338-.34.884-.34 1.222 0 .338.34.338.887 0 1.226l-.61.612c-.17.17-.39.254-.612.254zM61.453 161.178c-.22 0-.442-.085-.61-.254-.34-.338-.34-.886 0-1.225l.61-.614c.338-.34.885-.34 1.223 0 .338.34.338.887 0 1.226l-.61.612c-.17.17-.39.254-.613.254zM64.51 164.242c-.22 0-.443-.085-.61-.254-.34-.34-.34-.886 0-1.225l.61-.613c.338-.34.884-.34 1.222 0 .338.34.338.887 0 1.225l-.61.613c-.17.17-.39.254-.612.254zM66.343 166.08c-.22 0-.442-.085-.61-.254-.34-.34-.34-.886 0-1.225l.61-.612c.338-.34.885-.34 1.223 0 .338.34.338.887 0 1.226l-.612.612c-.168.17-.39.254-.61.254zM68.177 167.92c-.222 0-.443-.086-.61-.255-.34-.338-.34-.886 0-1.225l.61-.614c.34-.34.886-.34 1.224 0 .34.338.34.887 0 1.226l-.61.613c-.17.17-.392.254-.613.254z" fill="#95A5A5"/></g></g><path d="M194 241c24.853 0 45-20.147 45-45s-20.147-45-45-45-45 20.147-45 45 20.147 45 45 45z" fill="#292929"/><path d="M186.997 232.414v-4.173c0-.79.008-1.564.023-2.322.016-.76.04-1.455.07-2.087.033-1.47.057-3.04.073-4.67.015-1.627.023-3.342.023-5.144 0-3.477-.04-7.08-.118-10.81-.08-3.73-.308-7.61-.688-11.642-.38-4.03-.964-8.203-1.754-12.518-.79-4.315-1.913-8.795-3.367-13.442L192.306 162c1.612 5.153 2.87 10.092 3.77 14.818.9 4.726 1.565 9.246 1.99 13.56.428 4.316.69 8.45.784 12.4.096 3.952.143 7.745.143 11.38 0 1.802-.008 3.533-.024 5.192-.016 1.66-.04 3.248-.072 4.766-.03.632-.055 1.32-.07 2.062-.017.743-.025 1.494-.025 2.253v3.984h-11.806z" fill="#ECF0F1"/></g></svg>