<svg viewBox="0 0 239 243" xmlns="http://www.w3.org/2000/svg"><title>sales-count-1</title><g transform="translate(1 1)" fill="none" fill-rule="evenodd"><path d="M221 157.795c0 8.08-13.5 28.407-24.5 36.882l-59 32.405c-18.5 8.973-38.5 9.472-55 0l-58-32.405C13 184.707 0 165.882 0 157.795v-80.78c0-8.08 14.5-30.402 24.5-37.88l58-33.9c16.5-6.98 37-6.98 55 0l59 33.9c12.234 10.47 24.5 29.792 24.5 37.88v80.78z" fill="#EFEBE9" fill-rule="nonzero"/><path d="M221 157.795c0 8.08-13.5 28.407-24.5 36.882l-59 32.405c-18.5 8.973-38.5 9.472-55 0l-58-32.405C13 184.707 0 165.882 0 157.795v-80.78c0-8.08 14.5-30.402 24.5-37.88l58-33.9c16.5-6.98 37-6.98 55 0l59 33.9c12.234 10.47 24.5 29.792 24.5 37.88v80.78z" stroke="#32280E" fill="none"/><g fill-rule="nonzero"><path d="M57.936 72.497l63.195-12.543c1.874-.376 3.623.878 3.997 2.634l24.73 118.41c.374 1.88-.875 3.637-2.624 4.013l-63.32 12.545c-1.873.376-3.622-.878-3.996-2.635L55.313 76.512c-.375-1.882.75-3.638 2.623-4.015z" fill="#2B8272"/><path d="M124.503 96.204l-5.745-28.222c-.125-.878-1.124-1.505-2-1.38L63.307 77.264c-.874.126-1.5 1.13-1.374 2.007l5.745 28.224c.125.878 1.124 1.505 2 1.38.873-.126 1.497-1.13 1.372-2.008l-5.37-26.59 50.08-10.036 5.37 26.59c.126.88 1.125 1.507 2 1.38.873-.25 1.498-1.128 1.373-2.006z" fill="#4B9587"/><path d="M74.047 52.805l64.194-6.272c1.874-.125 3.498 1.13 3.747 3.01L157.35 175.98c.124 1.882-1.125 3.512-2.998 3.638l-64.194 6.27c-1.874.127-3.497-1.128-3.747-3.01L71.05 56.443c-.126-1.756 1.248-3.512 2.997-3.637z" fill="#359685"/><path d="M135.12 54.31c-.126-.878-.876-1.63-1.875-1.505l-54.203 5.268c-.874.125-1.623.878-1.498 1.88l2.872 28.726c.125.877.874 1.63 1.874 1.504.874-.126 1.623-.878 1.498-1.882l-2.623-26.968 50.83-4.892 2.624 26.968c.124.878.873 1.63 1.872 1.505.875-.125 1.624-.878 1.5-1.88l-2.873-28.725z" fill="#53A697"/><path d="M96.153 37h65.567c1.874 0 3.497 1.505 3.497 3.512V171.59c0 1.882-1.498 3.512-3.497 3.512H96.153c-1.874 0-3.498-1.505-3.498-3.512V40.512c0-2.007 1.5-3.512 3.498-3.512z" fill="#3DB39E"/><path d="M103.896 105.988c0 13.923 11.24 25.087 24.978 25.087 13.738 0 24.978-11.29 24.978-25.087s-11.24-25.086-24.978-25.086c-13.738 0-24.978 11.29-24.978 25.086zm11.615-.627h1.874c.375-3.135 2.123-5.518 3.997-6.52.25-.127.625-.252.875-.252 1 0 1.748.752 1.748 1.63 0 .753-.374 1.13-.75 1.38-1.373 1.38-2.497 3.01-2.497 5.268 0 2.885 1 4.265 2.998 4.265 4.87 0 2.622-11.664 10.615-11.664 2.997 0 5.494 1.756 5.994 5.895h1.874c.874 0 1.623.628 1.623 1.506s-.748 1.505-1.622 1.505h-1.874c-.375 2.51-1.374 4.642-2.997 5.77-.25.252-.624.378-1.124.378-1 0-1.75-.753-1.75-1.756 0-.502.25-.878.75-1.38 1-1.004 1.75-2.634 1.75-4.515 0-2.635-1.25-3.638-2.624-3.638-4.372 0-2.374 11.664-10.616 11.664-3.622 0-5.995-2.257-6.495-6.522h-1.874c-.875 0-1.624-.627-1.624-1.505.125-.88.874-1.506 1.75-1.506zm41.465 38.258c-1 0-1.874.878-1.874 1.882v19.442h-52.453V145.5c0-1.004-.874-1.882-1.874-1.882s-1.873.878-1.873 1.882v21.324c0 1.003.874 1.88 1.873 1.88h56.202c1 0 1.873-.877 1.873-1.88V145.5c0-1.004-.874-1.882-1.873-1.882zm0-100.346h-56.2c-1 0-1.875.878-1.875 1.88v21.325c0 1.003.875 1.88 1.874 1.88 1 0 1.873-.877 1.873-1.88V47.035H155.1v19.442c0 1.003.876 1.88 1.875 1.88 1 0 1.873-.877 1.873-1.88V45.153c0-1.003-.874-1.88-1.873-1.88zm-31.847 105.364c0 2.132 1.623 3.762 3.746 3.762s3.747-1.63 3.747-3.762c0-2.133-1.623-3.763-3.746-3.763s-3.746 1.756-3.746 3.763zm7.493-85.295c0-2.13-1.623-3.762-3.746-3.762s-3.746 1.63-3.746 3.763 1.623 3.764 3.746 3.764 3.747-1.63 3.747-3.763z" fill="#81CEC0"/></g><circle fill="#374544" cx="193" cy="197" r="45"/><path d="M189.246 229.388v-3.815c0-.723.008-1.43.022-2.125.015-.694.036-1.33.065-1.908.03-1.344.05-2.782.065-4.27.015-1.49.022-3.057.022-4.705 0-3.18-.036-6.475-.11-9.886-.07-3.412-.28-6.96-.627-10.646-.347-3.685-.882-7.5-1.605-11.446-.722-3.946-1.748-8.044-3.078-12.293L194.103 165c1.474 4.712 2.623 9.228 3.447 13.55.824 4.32 1.43 8.455 1.82 12.4.39 3.946.63 7.726.716 11.34.087 3.612.13 7.08.13 10.405 0 1.648-.007 3.23-.02 4.748-.016 1.517-.038 2.97-.066 4.357-.03.578-.05 1.207-.065 1.886-.015.68-.022 1.366-.022 2.06v3.642h-10.797z" fill="#ECF0F1"/></g></svg>